<svg width="640" height="480" viewBox="0 0 640 480" fill="none" xmlns="http://www.w3.org/2000/svg">
  <defs>
    <linearGradient id="grad1" x1="0" y1="0" x2="1" y2="1">
      <stop offset="0%" stop-color="#FF6B81" stop-opacity="0.9"/>
      <stop offset="100%" stop-color="#FF9BB0" stop-opacity="0.4"/>
    </linearGradient>
    <linearGradient id="grad2" x1="0" y1="0" x2="1" y2="0.6">
      <stop offset="0%" stop-color="#FFF5F7" stop-opacity="0.9"/>
      <stop offset="100%" stop-color="#FFFFFF" stop-opacity="0.9"/>
    </linearGradient>
  </defs>
  <rect x="40" y="40" width="560" height="400" rx="48" fill="url(#grad2)" stroke="#FFE1E7" stroke-width="2"/>
  <circle cx="140" cy="150" r="46" fill="url(#grad1)" opacity="0.7"/>
  <rect x="120" y="240" width="140" height="90" rx="18" fill="#fff" stroke="#FFD0DA" stroke-width="2"/>
  <rect x="310" y="120" width="190" height="120" rx="20" fill="#fff" stroke="#FFD0DA" stroke-width="2"/>
  <rect x="310" y="270" width="190" height="80" rx="18" fill="#fff" stroke="#FFD0DA" stroke-width="2"/>
  <rect x="340" y="150" width="46" height="46" rx="12" fill="#FF6B81" opacity="0.9"/>
  <rect x="402" y="150" width="70" height="12" rx="6" fill="#FF9BB0"/>
  <rect x="402" y="170" width="92" height="12" rx="6" fill="#FF9BB0" opacity="0.7"/>
  <rect x="340" y="300" width="46" height="46" rx="12" fill="#FF6B81" opacity="0.85"/>
  <rect x="402" y="300" width="70" height="12" rx="6" fill="#FF9BB0"/>
  <rect x="402" y="320" width="92" height="12" rx="6" fill="#FF9BB0" opacity="0.7"/>
  <path d="M140 260 C170 220 230 220 260 260" stroke="#FF6B81" stroke-width="10" fill="none" stroke-linecap="round"/>
  <path d="M140 300 C170 340 230 340 260 300" stroke="#E5576F" stroke-width="10" fill="none" stroke-linecap="round"/>
  <circle cx="340" cy="235" r="9" fill="#FF6B81"/>
  <circle cx="370" cy="235" r="9" fill="#FF6B81" opacity="0.85"/>
  <circle cx="400" cy="235" r="9" fill="#FF6B81" opacity="0.7"/>
</svg>
